<?xml version="1.0" encoding="UTF-8"?>
<svg width="28px" height="20px" viewBox="0 0 28 20" version="1.1" xmlns="http://www.w3.org/2000/svg" xmlns:xlink="http://www.w3.org/1999/xlink">
    <!-- Generator: Sketch 41.2 (35397) - http://www.bohemiancoding.com/sketch -->
    <title>Shape</title>
    <desc>Created with Sketch.</desc>
    <defs></defs>
    <g id="Symbols" stroke="none" stroke-width="1" fill="none" fill-rule="evenodd">
        <g id="dull" fill="#FFFFFF">
            <path d="M7,0 L7,3.09375 C6.3657731,3.2244476 5.7749117,3.4944983 5.25,3.84375 L3.0625,1.625 L1.625,3.0625 L3.84375,5.25 C3.4944983,5.774912 3.2244476,6.365773 3.09375,7 L0,7 L0,9 L3.125,9 C3.2539822,9.627042 3.5090051,10.200057 3.84375,10.71875 L1.625,12.9375 L2.25,13.5625 C2.1121813,14.019304 2,14.498884 2,15 C2,17.757 4.243,20 7,20 L23,20 C25.757,20 28,17.757 28,15 C28,12.981 26.78775,11.18125 24.96875,10.40625 C24.68575,7.98825 22.6575,6.097 20.1875,6 C19.1255,4.154 17.166,3 15,3 C14.774273,3 14.563992,3.0064318 14.34375,3.03125 L12.9375,1.625 L10.75,3.84375 C10.226155,3.5084134 9.62957,3.2538501 9,3.125 L9,0 L7,0 Z M8,5 C8.766859,5 9.445246,5.284939 9.96875,5.75 C9.706724,6.154287 9.472279,6.596038 9.3125,7.0625 C7.7295,7.3335 6.45975,8.54475 6.09375,10.09375 C6.0405228,10.103378 5.9901308,10.113696 5.9375,10.125 C5.3788851,9.581248 5,8.847808 5,8 C5,6.331516 6.3315161,5 8,5 Z M15,5 C16.605,5 18.0565,5.9595 18.6875,7.4375 L18.96875,8.125 L19.875,8.03125 C19.919,8.02425 19.954,8 20,8 C21.654,8 22.997,9.3525 23,10.9375 L22.96875,11.90625 L23.75,12.09375 C25.081,12.43275 26,13.636 26,15 C26,16.654 24.654,18 23,18 L7,18 C5.346,18 4,16.654 4,15 C4,13.346 5.346,12 7,12 L8,12 L8,11 C8,9.897 8.89325,9.005 9.90625,9 L10.90625,9.0625 L11.09375,8.21875 C11.46775,6.35975 13.103,5 15,5 Z" id="Shape"></path>
        </g>
    </g>
</svg>