<svg width="22px" height="22px" viewBox="0 0 22 22" version="1.1" xmlns="http://www.w3.org/2000/svg" xmlns:xlink="http://www.w3.org/1999/xlink">
  <g id="Main" stroke="none" stroke-width="1" fill="none" fill-rule="evenodd">
    <g id="main_3" transform="translate(-140.000000, -2153.000000)" fill="#FFFFFF">
      <g id="footer" transform="translate(0.000000, 1993.000000)">
        <g id="fb" transform="translate(140.000000, 160.000000)">
          <path d="M2,0 C0.9069372,0 0,0.9069372 0,2 L0,20 C0,21.093063 0.9069372,22 2,22 L20,22 C21.093063,22 22,21.093063 22,20 L22,2 C22,0.9069372 21.093063,0 20,0 L2,0 Z M2,2 L20,2 L20,20 L14.8125,20 L14.8125,13.25 L17.40625,13.25 L17.78125,10.25 L14.8125,10.25 L14.8125,8.3125 C14.8125,7.4385 15.02825,6.84375 16.28125,6.84375 L17.90625,6.84375 L17.90625,4.125 C17.62925,4.088 16.6665,4.03125 15.5625,4.03125 C13.2585,4.03125 11.6875,5.417 11.6875,8 L11.6875,10.25 L9.0625,10.25 L9.0625,13.25 L11.6875,13.25 L11.6875,20 L2,20 L2,2 Z" id="Shape"></path>
        </g>
      </g>
    </g>
  </g>
</svg>
