<?xml version="1.0" encoding="UTF-8"?>
<svg width="18px" height="25px" viewBox="0 0 18 25" version="1.1" xmlns="http://www.w3.org/2000/svg" xmlns:xlink="http://www.w3.org/1999/xlink">
    <!-- Generator: Sketch 41.2 (35397) - http://www.bohemiancoding.com/sketch -->
    <title>fridge</title>
    <desc>Created with Sketch.</desc>
    <defs></defs>
    <g id="Main" stroke="none" stroke-width="1" fill="none" fill-rule="evenodd">
        <g id="main_3" transform="translate(-999.000000, -736.000000)" fill="#242424">
            <g id="services" transform="translate(720.000000, 672.000000)">
                <g id="Group-2" transform="translate(0.000000, 40.000000)">
                    <g id="fridge" transform="translate(279.000000, 24.000000)">
                        <path d="M0,0 L0,1 L0,23 L0,24 L1,24 L2,24 L2,25 L4,25 L4,24 L14,24 L14,25 L16,25 L16,24 L17,24 L18,24 L18,23 L18,1 L18,0 L17,0 L1,0 L0,0 Z M2,2 L16,2 L16,9 L2,9 L2,2 Z M4,4 L4,7 L6,7 L6,4 L4,4 Z M2,11 L16,11 L16,22 L2,22 L2,11 Z M4,13 L4,19 L6,19 L6,13 L4,13 Z" id="Shape"></path>
                    </g>
                </g>
            </g>
        </g>
    </g>
</svg>