<?xml version="1.0" encoding="UTF-8"?>
<svg width="28px" height="22px" viewBox="0 0 28 22" version="1.1" xmlns="http://www.w3.org/2000/svg" xmlns:xlink="http://www.w3.org/1999/xlink">
    <!-- Generator: Sketch 41.2 (35397) - http://www.bohemiancoding.com/sketch -->
    <title>gallery</title>
    <desc>Created with Sketch.</desc>
    <defs></defs>
    <g id="Main" stroke="none" stroke-width="1" fill="none" fill-rule="evenodd">
        <g id="main_3" transform="translate(-1390.000000, -919.000000)" fill="#FFFFFF">
            <g id="sea" transform="translate(0.000000, 894.000000)">
                <g id="gallery" transform="translate(1390.000000, 25.000000)">
                    <path d="M0,0 L0,1 L0,21 L0,22 L1,22 L27,22 L28,22 L28,21 L28,1 L28,0 L27,0 L1,0 L0,0 Z M2,2 L26,2 L26,15.90625 L20.71875,10.59375 L20,9.875 L19.28125,10.59375 L15.46875,14.40625 L9.71875,8.59375 L9,7.875 L8.28125,8.59375 L2,14.875 L2,2 Z M22,4 C20.895431,4 20,4.8954305 20,6 C20,7.104569 20.895431,8 22,8 C23.104569,8 24,7.104569 24,6 C24,4.8954305 23.104569,4 22,4 Z M9,10.71875 L18.1875,20 L2,20 L2,17.71875 L9,10.71875 Z M20,12.71875 L26,18.71875 L26,20 L21.03125,20 L16.875,15.8125 L20,12.71875 Z" id="Shape"></path>
                </g>
            </g>
        </g>
    </g>
</svg>