<svg width="22px" height="22px" viewBox="0 0 22 22" version="1.1" xmlns="http://www.w3.org/2000/svg" xmlns:xlink="http://www.w3.org/1999/xlink">
  <g id="Main" stroke="none" stroke-width="1" fill="none" fill-rule="evenodd">
    <g id="main_3" transform="translate(-182.000000, -2153.000000)" fill="#FFFFFF">
      <g id="footer" transform="translate(0.000000, 1993.000000)">
        <g id="instagram" transform="translate(182.000000, 160.000000)">
          <path d="M6.46875,0 C2.9162454,0 0,2.9154247 0,6.46875 L0,15.53125 C0,19.083755 2.9154247,22 6.46875,22 L15.53125,22 C19.083755,22 22,19.084575 22,15.53125 L22,6.46875 C22,2.9162454 19.084575,0 15.53125,0 L6.46875,0 Z M6.46875,2 L15.53125,2 C18.003925,2 20,3.9972546 20,6.46875 L20,15.53125 C20,18.003925 18.002745,20 15.53125,20 L6.46875,20 C3.9960753,20 2,18.002745 2,15.53125 L2,6.46875 C2,3.9960753 3.9972546,2 6.46875,2 Z M16.90625,4.1875 C16.404224,4.1875 16,4.5917228 16,5.09375 C16,5.595776 16.404224,6 16.90625,6 C17.408277,6 17.8125,5.595776 17.8125,5.09375 C17.8125,4.5917228 17.408277,4.1875 16.90625,4.1875 Z M11,5 C7.698136,5 5,7.698136 5,11 C5,14.301864 7.698136,17 11,17 C14.301864,17 17,14.301864 17,11 C17,7.698136 14.301864,5 11,5 Z M11,7 C13.220984,7 15,8.779016 15,11 C15,13.220984 13.220984,15 11,15 C8.779016,15 7,13.220984 7,11 C7,8.779016 8.779016,7 11,7 Z" id="Shape"></path>
        </g>
      </g>
    </g>
  </g>
</svg>
