<svg width="40" height="35" viewBox="0 0 40 35" version="1.1" xmlns="http://www.w3.org/2000/svg" xmlns:xlink="http://www.w3.org/1999/xlink">
  <g id="Main" stroke="none" stroke-width="1" fill="none" fill-rule="evenodd">
    <g id="main_3" transform="translate(-16.000000, -19.000000)" fill="#FFFFFF">
      <g id="header">
        <g id="Group-3" transform="translate(16.000000, 19.000000)">
          <g id="Group">
            <path d="M7.59956044,5.985875 C7.72615385,6.257125 8.83956044,6.6110625 10.0048352,6.297375 C11.2017582,5.975375 12.3731868,4.6764375 12.3731868,4.6764375 C12.3731868,4.6764375 10.7037363,4.1418125 9.50681319,4.4638125 C9.3643956,4.5023125 9.22857143,4.5495625 9.09846154,4.6025 C9.16087912,4.47475 9.21802198,4.340875 9.26637363,4.1995625 C9.66593407,3.031 9.23692308,1.33875 9.23692308,1.33875 C9.23692308,1.33875 7.85978022,2.4189375 7.45978022,3.5870625 C7.08,4.69875 7.34153846,5.8016875 7.59956044,5.985875 Z" id="Shape"></path>
            <path d="M13.3718681,2.7138125 C14.4967033,1.9989375 15.2786813,0.289625 15.2786813,0.289625 C15.2786813,0.289625 13.3916484,0.2760625 12.2668132,0.9909375 C11.141978,1.7058125 10.6175824,2.8896875 10.7824176,3.1465 C10.9472527,3.4033125 12.247033,3.42825 13.3718681,2.7138125 Z" id="Shape"></path>
            <path d="M4.51736264,10.40375 C4.70593407,10.677625 5.98901099,10.86225 7.20703297,10.3075 C8.45802198,9.7374375 9.50153846,8.1029375 9.50153846,8.1029375 C9.50153846,8.1029375 7.5767033,7.8211875 6.32527473,8.39125 C6.17626374,8.4590625 6.03648352,8.5360625 5.90373626,8.6174375 C5.94857143,8.4660625 5.98637363,8.309 6.01362637,8.1458125 C6.23648352,6.794375 5.4567033,5.0203125 5.4567033,5.0203125 C5.4567033,5.0203125 4.14725275,6.4526875 3.9243956,7.804125 C3.71208791,9.0890625 4.20087912,10.248875 4.51736264,10.40375 Z" id="Shape"></path>
            <path d="M2.74549451,15.7880625 C3.05010989,16.043125 4.58505495,15.8475625 5.80747253,14.8220625 C7.06285714,13.7685625 7.73846154,11.5574375 7.73846154,11.5574375 C7.73846154,11.5574375 5.43428571,11.84575 4.1789011,12.89925 C4.02989011,13.0239375 3.89362637,13.1560625 3.76747253,13.29125 C3.77054945,13.104 3.76307692,12.9115 3.74153846,12.7159375 C3.5643956,11.0910625 2.09758242,9.2990625 2.09758242,9.2990625 C2.09758242,9.2990625 1.05186813,11.36275 1.22945055,12.987625 C1.3978022,14.532875 2.33186813,15.7110625 2.74549451,15.7880625 Z" id="Shape"></path>
            <path d="M3.07472527,20.990375 C3.12307692,20.9685 3.16923077,20.916 3.21098901,20.843375 C3.74505495,20.7773125 4.87912088,20.1298125 5.58901099,18.9896875 C6.43164835,17.6365 6.34681319,15.4118125 6.34681319,15.4118125 C6.34681319,15.4118125 4.26285714,16.398375 3.42021978,17.7515625 C3.30549451,17.93575 3.20967033,18.123 3.12703297,18.3098125 C3.07604396,18.1715625 3.01978022,18.0333125 2.95208791,17.8955 C2.25318681,16.47275 0.28043956,15.302875 0.28043956,15.302875 C0.28043956,15.302875 -0.0334065934,17.5091875 0.665934066,18.932375 C1.36483516,20.355125 2.73362637,21.1448125 3.07472527,20.990375 Z" id="Shape"></path>
            <path d="M5.19648352,26.1069375 C5.23208791,26.070625 5.25494505,26.00675 5.26681319,25.925375 C5.72175824,25.6869375 6.51076923,24.7095625 6.74725275,23.4154375 C7.02813187,21.879375 6.17362637,19.8419375 6.17362637,19.8419375 C6.17362637,19.8419375 4.65274725,21.4493125 4.37230769,22.985375 C4.33406593,23.1945 4.31340659,23.400125 4.30505495,23.6009375 C4.21098901,23.4898125 4.11208791,23.38 4.00351648,23.2745625 C2.87956044,22.1851875 0.704175824,21.753375 0.704175824,21.753375 C0.704175824,21.753375 1.1956044,23.9063125 2.31912088,24.9956875 C3.44307692,26.084625 4.94505495,26.36375 5.19648352,26.1069375 Z" id="Shape"></path>
            <path d="M8.17054945,29.8816875 C8.53098901,29.61 9.03516484,28.68775 8.96835165,27.612375 C8.88923077,26.340125 7.67340659,24.8836875 7.67340659,24.8836875 C7.67340659,24.8836875 6.64571429,26.4464375 6.72483516,27.7186875 C6.73582418,27.894125 6.76395604,28.0625625 6.80087912,28.22575 C6.68967033,28.1535625 6.57758242,28.0818125 6.45406593,28.0175 C5.2,27.36475 3.1367033,27.432125 3.1367033,27.432125 C3.1367033,27.432125 4.04879121,29.0486875 5.30285714,29.7014375 C6.55692308,30.3541875 7.97714286,30.2925 8.14901099,30.041375 C8.17362637,30.0059375 8.17758242,29.9490625 8.17054945,29.8816875 Z" id="Shape"></path>
            <path d="M12.3279121,32.8251875 C12.3345055,32.7884375 12.3195604,32.739 12.2927473,32.68475 C12.4716484,32.35575 12.5481319,31.439625 12.1542857,30.55325 C11.6883516,29.505 10.3248352,28.61775 10.3248352,28.61775 C10.3248352,28.61775 10.0672527,30.2185625 10.5336264,31.2668125 C10.5978022,31.411625 10.6725275,31.5455 10.7520879,31.672375 C10.647033,31.642625 10.5410989,31.6133125 10.4294505,31.593625 C9.29538462,31.39325 7.79472527,32.024125 7.79472527,32.024125 C7.79472527,32.024125 8.98549451,33.130125 10.1195604,33.3305 C11.2536264,33.530875 12.2817582,33.0841875 12.3279121,32.8251875 Z" id="Shape"></path>
            <path d="M16.301978,33.826625 C16.3775824,33.48625 16.1885714,32.6501875 15.5608791,31.9659375 C14.818022,31.1565625 13.2685714,30.7286875 13.2685714,30.7286875 C13.2685714,30.7286875 13.4817582,32.221875 14.2246154,33.0316875 C14.327033,33.14325 14.4364835,33.243 14.5481319,33.334875 C14.44,33.3361875 14.330989,33.338375 14.2189011,33.350625 C13.0835165,33.473125 11.8382418,34.433 11.8382418,34.433 C11.8382418,34.433 13.2865934,35.1019375 14.4215385,34.979 C15.5569231,34.8565 16.4061538,34.185375 16.3758242,33.9425625 C16.3714286,33.9075625 16.3428571,33.86775 16.301978,33.826625 Z" id="Shape"></path>
            <path d="M29.9758242,6.297375 C31.1410989,6.6110625 32.2545055,6.2575625 32.3810989,5.985875 C32.6395604,5.8016875 32.9010989,4.6983125 32.5208791,3.5875 C32.1213187,2.419375 30.7437363,1.3391875 30.7437363,1.3391875 C30.7437363,1.3391875 30.3147253,3.0314375 30.7142857,4.2 C30.7626374,4.3413125 30.8197802,4.4751875 30.8821978,4.6029375 C30.7520879,4.55 30.6162637,4.50275 30.4738462,4.46425 C29.2769231,4.14225 27.6074725,4.676875 27.6074725,4.676875 C27.6074725,4.676875 28.7784615,5.975375 29.9758242,6.297375 Z" id="Shape"></path>
            <path d="M26.6087912,2.7138125 C27.7336264,3.4286875 29.0334066,3.4033125 29.1982418,3.1465 C29.3630769,2.8896875 28.8386813,1.7058125 27.7138462,0.9909375 C26.589011,0.2760625 24.701978,0.289625 24.701978,0.289625 C24.701978,0.289625 25.483956,1.9989375 26.6087912,2.7138125 Z" id="Shape"></path>
            <path d="M30.4791209,8.1029375 C30.4791209,8.1029375 31.5226374,9.7374375 32.7736264,10.3075 C33.9916484,10.8626875 35.2747253,10.677625 35.4632967,10.40375 C35.7797802,10.248875 36.2685714,9.0890625 36.0562637,7.804125 C35.832967,6.4526875 34.523956,5.0203125 34.523956,5.0203125 C34.523956,5.0203125 33.7437363,6.794375 33.967033,8.1458125 C33.9938462,8.309 34.0320879,8.4660625 34.0769231,8.6174375 C33.9441758,8.5360625 33.803956,8.4590625 33.6553846,8.39125 C32.403956,7.8211875 30.4791209,8.1029375 30.4791209,8.1029375 Z" id="Shape"></path>
            <path d="M35.8021978,12.89925 C34.5468132,11.84575 32.2426374,11.5574375 32.2426374,11.5574375 C32.2426374,11.5574375 32.9178022,13.7685625 34.1736264,14.8220625 C35.396044,15.8475625 36.930989,16.043125 37.2356044,15.7880625 C37.6492308,15.710625 38.5832967,14.5324375 38.7520879,12.987625 C38.9292308,11.36275 37.883956,9.2990625 37.883956,9.2990625 C37.883956,9.2990625 36.4175824,11.0910625 36.24,12.7159375 C36.2184615,12.9115 36.2114286,13.1035625 36.2140659,13.29125 C36.0874725,13.155625 35.9507692,13.0239375 35.8021978,12.89925 Z" id="Shape"></path>
            <path d="M39.7002198,15.302875 C39.7002198,15.302875 37.7274725,16.47275 37.0285714,17.8955 C36.9608791,18.0333125 36.9046154,18.1715625 36.8536264,18.3098125 C36.7714286,18.123 36.6751648,17.93575 36.5604396,17.7515625 C35.7178022,16.398375 33.6338462,15.4118125 33.6338462,15.4118125 C33.6338462,15.4118125 33.549011,17.6365 34.3916484,18.9896875 C35.1015385,20.1298125 36.2356044,20.7773125 36.7696703,20.843375 C36.8114286,20.9164375 36.8571429,20.9685 36.9059341,20.990375 C37.247033,21.14525 38.6158242,20.355125 39.3151648,18.932375 C40.0140659,17.509625 39.7002198,15.302875 39.7002198,15.302875 Z" id="Shape"></path>
            <path d="M35.6756044,23.6005 C35.6672527,23.3996875 35.6465934,23.1940625 35.6083516,22.9849375 C35.3274725,21.448875 33.807033,19.8415 33.807033,19.8415 C33.807033,19.8415 32.952967,21.8789375 33.2334066,23.415 C33.4698901,24.709125 34.2589011,25.6865 34.7138462,25.9249375 C34.7257143,26.00675 34.7485714,26.0701875 34.7841758,26.1069375 C35.0356044,26.36375 36.5371429,26.084625 37.6610989,24.99525 C38.7850549,23.905875 39.276044,21.7529375 39.276044,21.7529375 C39.276044,21.7529375 37.1006593,22.18475 35.9767033,23.274125 C35.8681319,23.3795625 35.7692308,23.489375 35.6756044,23.6005 Z" id="Shape"></path>
            <path d="M33.5265934,28.0175 C33.4030769,28.0818125 33.2905495,28.1535625 33.1797802,28.22575 C33.2167033,28.0625625 33.2448352,27.894125 33.2558242,27.7186875 C33.3349451,26.4464375 32.3072527,24.8836875 32.3072527,24.8836875 C32.3072527,24.8836875 31.0914286,26.340125 31.0123077,27.612375 C30.9454945,28.68775 31.4496703,29.61 31.8101099,29.8816875 C31.8030769,29.9490625 31.8074725,30.0059375 31.8316484,30.0418125 C32.0035165,30.2929375 33.4237363,30.354625 34.6778022,29.701875 C35.9318681,29.049125 36.843956,27.4325625 36.843956,27.4325625 C36.843956,27.4325625 34.7806593,27.36475 33.5265934,28.0175 Z" id="Shape"></path>
            <path d="M29.5516484,31.5940625 C29.44,31.61375 29.3340659,31.6430625 29.229011,31.6728125 C29.3085714,31.5459375 29.3832967,31.4120625 29.4474725,31.26725 C29.9134066,30.219 29.6562637,28.6181875 29.6562637,28.6181875 C29.6562637,28.6181875 28.2927473,29.505 27.8268132,30.5536875 C27.432967,31.439625 27.5094505,32.3561875 27.6883516,32.6851875 C27.6615385,32.739875 27.6465934,32.788875 27.6531868,32.825625 C27.6993407,33.084625 28.7274725,33.53175 29.8615385,33.331375 C30.9956044,33.131 32.1863736,32.025 32.1863736,32.025 C32.1863736,32.025 30.6857143,31.3936875 29.5516484,31.5940625 Z" id="Shape"></path>
            <path d="M25.4325275,33.3344375 C25.5441758,33.2425625 25.6536264,33.14325 25.756044,33.03125 C26.4989011,32.2214375 26.7120879,30.72825 26.7120879,30.72825 C26.7120879,30.72825 25.1626374,31.156125 24.4197802,31.9655 C23.7920879,32.64975 23.6026374,33.4858125 23.6786813,33.8261875 C23.6378022,33.86775 23.6092308,33.9075625 23.6048352,33.942125 C23.5745055,34.1849375 24.4237363,34.8560625 25.5591209,34.9785625 C26.6945055,35.1010625 28.1424176,34.4325625 28.1424176,34.4325625 C28.1424176,34.4325625 26.8967033,33.4726875 25.7617582,33.3501875 C25.6496703,33.3379375 25.5410989,33.33575 25.4325275,33.3344375 Z" id="Shape"></path>
          </g>
        </g>
      </g>
    </g>
  </g>
</svg>
