<svg xmlns="http://www.w3.org/2000/svg" width="32" height="23" viewBox="0 0 32 23">
  <path fill="#FFFFFF" fill-rule="evenodd" d="M16,0 C12.774,0 9.97175,2.25675 9.21875,5.34375 C7.97175,5.82575 6.93825,6.81325 6.40625,8.03125 C2.89725,7.74525 0,10.553 0,14 C0,16.967 2.167,19.42725 5,19.90625 L5,17.84375 C3.28,17.39675 2,15.859 2,14 C2,11.794 3.794,10 6,10 C6.275,10 6.557,10.02275 6.875,10.09375 L7.875,10.3125 L8.0625,9.34375 C8.3085,8.23775 9.2055,7.35875 10.3125,7.09375 L10.96875,6.9375 L11.0625,6.28125 C11.4215,3.84925 13.543,2 16,2 C17.894,2 19.61175,3.053 20.46875,4.75 L20.84375,5.53125 L21.6875,5.25 C22.1545,5.087 22.582,5 23,5 C25.206,5 27,6.794 27,9 C27,9.038 27.005,9.088 27,9.125 C26.991,9.193 26.97475,9.2435 26.96875,9.3125 L26.90625,10.03125 L27.5625,10.3125 C29.0395,10.9425 30,12.395 30,14 C30,15.859 28.72,17.39675 27,17.84375 L27,19.90625 C29.833,19.42825 32,16.968 32,14 C32,11.834 30.845,9.8745 29,8.8125 C28.895,5.5955 26.242,3 23,3 C22.611,3 22.2085,3.04 21.8125,3.125 C20.5225,1.178 18.372,0 16,0 Z M11,15 L11,18 L13,18 L13,15 L11,15 Z M19,15 L19,18 L21,18 L21,15 L19,15 Z M7,17 L7,20 L9,20 L9,17 L7,17 Z M15,17 L15,20 L17,20 L17,17 L15,17 Z M23,17 L23,20 L25,20 L25,17 L23,17 Z M11,19 L11,21 L13,21 L13,19 L11,19 Z M19,19 L19,21 L21,21 L21,19 L19,19 Z M7,21 L7,23 L9,23 L9,21 L7,21 Z M15,21 L15,23 L17,23 L17,21 L15,21 Z M23,21 L23,23 L25,23 L25,21 L23,21 Z"/>
</svg>
