<?xml version="1.0" encoding="UTF-8"?>
<svg width="25px" height="21px" viewBox="0 0 25 21" version="1.1" xmlns="http://www.w3.org/2000/svg" xmlns:xlink="http://www.w3.org/1999/xlink">
    <!-- Generator: Sketch 41.2 (35397) - http://www.bohemiancoding.com/sketch -->
    <title>safe</title>
    <desc>Created with Sketch.</desc>
    <defs></defs>
    <g id="Main" stroke="none" stroke-width="1" fill="none" fill-rule="evenodd">
        <g id="main_3" transform="translate(-1236.000000, -738.000000)" fill="#242424">
            <g id="services" transform="translate(720.000000, 672.000000)">
                <g id="Group-2" transform="translate(0.000000, 40.000000)">
                    <g id="safe" transform="translate(516.000000, 26.000000)">
                        <path d="M0,0 L0,1 L0,19 L0,20 L1,20 L2,20 L2,21 L6,21 L6,20 L18,20 L18,21 L22,21 L22,20 L23,20 L24,20 L24,19 L24,15 L25,15 L25,12 L24,12 L24,8 L25,8 L25,5 L24,5 L24,1 L24,0 L23,0 L1,0 L0,0 Z M2,2 L22,2 L22,18 L2,18 L2,2 Z M15,5 C12.250421,5 10,7.250421 10,10 C10,12.749579 12.250421,15 15,15 C17.749579,15 20,12.749579 20,10 C20,7.250421 17.749579,5 15,5 Z M5,6 C4.448,6 4,6.448 4,7 L4,13 C4,13.552 4.448,14 5,14 C5.552,14 6,13.552 6,13 L6,7 C6,6.448 5.552,6 5,6 Z M15,7 C16.668699,7 18,8.331301 18,10 C18,11.668699 16.668699,13 15,13 C13.331301,13 12,11.668699 12,10 C12,8.331301 13.331301,7 15,7 Z M15,9 C14.447715,9 14,9.447715 14,10 C14,10.552285 14.447715,11 15,11 C15.552285,11 16,10.552285 16,10 C16,9.447715 15.552285,9 15,9 Z" id="Shape"></path>
                    </g>
                </g>
            </g>
        </g>
    </g>
</svg>