<?xml version="1.0" encoding="UTF-8"?>
<svg width="20px" height="24px" viewBox="0 0 20 24" version="1.1" xmlns="http://www.w3.org/2000/svg" xmlns:xlink="http://www.w3.org/1999/xlink">
    <!-- Generator: Sketch 41.2 (35397) - http://www.bohemiancoding.com/sketch -->
    <title>Shape</title>
    <desc>Created with Sketch.</desc>
    <defs></defs>
    <g id="Symbols" stroke="none" stroke-width="1" fill="none" fill-rule="evenodd">
        <g id="scroll-icon" transform="translate(-2.000000, 0.000000)" fill="#FFFFFF">
            <g id="Group-2">
                <g transform="translate(2.000000, 0.000000)">
                    <path d="M10,0 C4.488666,0 0,4.4886661 0,10 L0,14 C0,19.511334 4.488666,24 10,24 C15.511334,24 20,19.511334 20,14 L20,10 C20,4.4886661 15.511334,0 10,0 Z M10,2 C14.430666,2 18,5.5693339 18,10 L18,14 C18,18.430666 14.430666,22 10,22 C5.569334,22 2,18.430666 2,14 L2,10 C2,5.5693339 5.569334,2 10,2 Z" id="Shape"></path>
                </g>
            </g>
        </g>
    </g>
</svg>