<svg xmlns="http://www.w3.org/2000/svg" width="32" height="25" viewBox="0 0 32 25">
  <path fill="#FFFFFF" fill-rule="evenodd" d="M16,0 C12.774,0 9.97175,2.25675 9.21875,5.34375 C7.97175,5.82675 6.93725,6.81425 6.40625,8.03125 C2.90925,7.77225 0,10.553 0,14 C0,17.309 2.691,20 6,20 L9,20 L9,18 L6,18 C3.794,18 2,16.206 2,14 C2,11.794 3.794,10 6,10 C6.277,10 6.559,10.02275 6.875,10.09375 L7.875,10.3125 L8.0625,9.34375 C8.3085,8.23775 9.2055,7.35775 10.3125,7.09375 L10.96875,6.9375 L11.0625,6.28125 C11.4215,3.84825 13.543,2 16,2 C17.894,2 19.61175,3.053 20.46875,4.75 L20.84375,5.53125 L21.6875,5.25 C22.1545,5.086 22.582,5 23,5 C25.206,5 27,6.794 27,9 C27,9.038 27.005,9.088 27,9.125 C26.991,9.193 26.97475,9.2425 26.96875,9.3125 L26.90625,10.03125 L27.5625,10.3125 C29.0395,10.9425 30,12.395 30,14 C30,16.206 28.206,18 26,18 L24,18 L24,20 L26,20 C29.309,20 32,17.309 32,14 C32,11.835 30.845,9.8755 29,8.8125 C28.895,5.5955 26.242,3 23,3 C22.611,3 22.2085,3.04 21.8125,3.125 C20.5225,1.178 18.372,0 16,0 Z M20,9 L20,11.25 L18.03125,10.125 L17.03125,11.875 L18.96875,13 L17.03125,14.125 L18.03125,15.875 L20,14.75 L20,17 L22,17 L22,14.75 L23.96875,15.875 L24.96875,14.125 L23.03125,13 L24.96875,11.875 L23.96875,10.125 L22,11.25 L22,9 L20,9 Z M14,17 L14,19.25 L12.03125,18.125 L11.03125,19.875 L12.96875,21 L11.03125,22.125 L12.03125,23.875 L14,22.75 L14,25 L16,25 L16,22.75 L17.96875,23.875 L18.96875,22.125 L17.03125,21 L18.96875,19.875 L17.96875,18.125 L16,19.25 L16,17 L14,17 Z"/>
</svg>
