<svg xmlns="http://www.w3.org/2000/svg" width="26" height="26" viewBox="0 0 26 26">
  <path fill="#FFFFFF" fill-rule="evenodd" d="M12,0 L12,5 L14,5 L14,0 L12,0 Z M4.5,3.09375 L3.09375,4.5 L6.625,8.0625 L8.0625,6.625 L4.5,3.09375 Z M21.5,3.09375 L17.9375,6.625 L19.375,8.0625 L22.90625,4.5 L21.5,3.09375 Z M13,6 C9.145852,6 6,9.145852 6,13 C6,16.854148 9.145852,20 13,20 C16.854148,20 20,16.854148 20,13 C20,9.145852 16.854148,6 13,6 Z M13,8 C15.773268,8 18,10.226732 18,13 C18,15.773268 15.773268,18 13,18 C10.226732,18 8,15.773268 8,13 C8,10.226732 10.226732,8 13,8 Z M0,12 L0,14 L5,14 L5,12 L0,12 Z M21,12 L21,14 L26,14 L26,12 L21,12 Z M6.625,17.9375 L3.09375,21.5 L4.5,22.90625 L8.0625,19.375 L6.625,17.9375 Z M19.375,17.9375 L17.9375,19.375 L21.5,22.90625 L22.90625,21.5 L19.375,17.9375 Z M12,21 L12,26 L14,26 L14,21 L12,21 Z"/>
</svg>
