<?xml version="1.0" encoding="UTF-8"?>
<svg width="26px" height="19px" viewBox="0 0 26 19" version="1.1" xmlns="http://www.w3.org/2000/svg" xmlns:xlink="http://www.w3.org/1999/xlink">
    <!-- Generator: Sketch 41.2 (35397) - http://www.bohemiancoding.com/sketch -->
    <title>wifi</title>
    <desc>Created with Sketch.</desc>
    <defs></defs>
    <g id="Main" stroke="none" stroke-width="1" fill="none" fill-rule="evenodd">
        <g id="main_3" transform="translate(-755.000000, -739.000000)" fill="#242424">
            <g id="services" transform="translate(720.000000, 672.000000)">
                <g id="Group-2" transform="translate(0.000000, 40.000000)">
                    <g id="wifi" transform="translate(35.000000, 27.000000)">
                        <path d="M12.8125,0 C7.7955,0 3.268,2.08325 0,5.40625 L1.40625,6.8125 C4.31125,3.8515 8.3465,2 12.8125,2 C17.2785,2 21.31375,3.8515 24.21875,6.8125 L25.625,5.40625 C22.357,2.08325 17.8295,0 12.8125,0 Z M12.8125,5 C9.1735,5 5.89325,6.5195 3.53125,8.9375 L4.9375,10.34375 C6.9375,8.28775 9.7255,7 12.8125,7 C15.8995,7 18.6875,8.28875 20.6875,10.34375 L22.09375,8.9375 C19.73175,6.5205 16.4515,5 12.8125,5 Z M12.8125,10 C10.5525,10 8.5185,10.95575 7.0625,12.46875 L8.46875,13.875 C9.56275,12.725 11.1035,12 12.8125,12 C14.5215,12 16.06325,12.725 17.15625,13.875 L18.5625,12.46875 C17.1075,10.95575 15.0725,10 12.8125,10 Z M12.8125,15 C11.9285,15 11.14275,15.392 10.59375,16 L12.8125,18.21875 L15.03125,16 C14.48225,15.392 13.6965,15 12.8125,15 Z" id="Shape"></path>
                    </g>
                </g>
            </g>
        </g>
    </g>
</svg>